<svg version="1.1" id="Layer_1" xmlns="http://www.w3.org/2000/svg" xmlns:xlink="http://www.w3.org/1999/xlink" x="0px" y="0px"
  width="1000px" height="1000px" viewBox="2355.236 0 1000 1000" enable-background="new 2355.236 0 1000 1000"
  xml:space="preserve">
  <g>
    <g>
      <polygon fill="#FFFFFF" points="2670.606,302.742 2690.021,302.742 2690.021,169.052 2801.772,169.052 2801.772,152.178 
        2690.021,152.178 2690.021,41.689 2822.01,41.689 2822.01,24.823 2670.606,24.823 		"/>
      <path fill="#FFFFFF" d="M3040.031,193.932c0,18.56-2.094,33.944-6.32,46.184c-4.211,12.232-9.77,22.073-16.646,29.506
        c-6.893,7.457-14.914,12.742-24.057,15.823c-9.119,3.105-18.756,4.643-28.878,4.643c-9.849,0-19.195-1.537-28.04-4.643
        c-8.86-3.081-16.662-8.366-23.406-15.823c-6.759-7.433-12.161-17.273-16.238-29.506c-4.085-12.239-6.108-27.624-6.108-46.184
        V24.823h-19.406v171.218c0,21.657,2.587,39.636,7.81,53.978c5.183,14.342,12.153,25.805,20.865,34.367
        c8.719,8.586,18.692,14.624,29.937,18.137c11.252,3.521,22.771,5.277,34.588,5.277c12.083,0,23.75-1.757,35.01-5.277
        c11.244-3.513,21.218-9.551,29.93-18.137c8.719-8.562,15.753-20.025,21.093-34.367s8.005-32.32,8.005-53.978V24.823h-18.136
        V193.932z"/>
    </g>
    <g>
      <rect x="2786.819" y="692.208" fill="#FFFFFF" width="19.406" height="277.904"/>
      <path fill="#FFFFFF" d="M3055.886,862.579c0,13.495,0.274,26.989,0.831,40.477c0.557,13.502,1.137,27.004,1.693,40.482h-1.693
        l-31.207-55.24l-117.225-196.09h-20.262v277.904h18.568V797.64c0-13.502-0.298-26.645-0.839-39.44
        c-0.573-12.789-1.138-25.931-1.702-39.433h1.702l31.191,55.256l117.248,196.09h20.245V692.208h-18.552V862.579z"/>
      <path fill="#FFFFFF" d="M3254.939,833.481v16.442h66.618v86.456c-6.752,6.743-15.675,11.949-26.77,15.604
        c-11.135,3.654-22.99,5.488-35.661,5.488c-15.737,0-29.852-3.026-42.366-9.063c-12.514-6.054-23.045-14.554-31.615-25.522
        c-8.594-10.963-15.148-24.253-19.634-39.856c-4.493-15.604-6.735-33.105-6.735-52.504c0-19.399,2.376-36.83,7.167-52.284
        c4.775-15.479,11.589-28.612,20.465-39.441c8.86-10.812,19.603-19.187,32.25-25.083c12.648-5.904,26.989-8.868,43.009-8.868
        c15.188,0,27.836,2.744,37.975,8.232c10.114,5.474,18.818,12.162,26.118,20.026l11.386-12.655
        c-3.646-3.929-7.92-7.865-12.844-11.809c-4.925-3.937-10.476-7.512-16.654-10.75c-6.194-3.223-13.071-5.826-20.67-7.795
        c-7.598-1.968-16.034-2.963-25.311-2.963c-18.536,0-35.355,3.316-50.395,9.918c-15.039,6.603-27.961,16.169-38.798,28.668
        c-10.812,12.521-19.187,27.624-25.084,45.337c-5.92,17.721-8.868,37.543-8.868,59.467c0,22.206,2.886,42.239,8.649,60.102
        c5.755,17.854,13.847,33.034,24.252,45.549c10.397,12.515,22.92,22.128,37.543,28.887c14.616,6.743,30.761,10.114,48.489,10.114
        c18.545,0,34.791-2.947,48.717-8.844c13.902-5.912,25.232-13.503,33.944-22.795V833.481H3254.939z"/>
    </g>
    <path fill="none" d="M3038.346,432.543c0-20.794-6.603-35.488-19.807-44.059c-13.221-8.586-32.047-12.867-56.511-12.867h-55.249
      v117.655h55.249c24.723,0,43.636-4.987,56.714-14.969C3031.821,468.33,3038.346,453.063,3038.346,432.543z"/>
    <polygon fill="#FFFFFF" points="2370.355,376.032 2458.921,376.032 2458.921,637.086 2478.319,637.086 2478.319,376.032 
      2566.885,376.032 2566.885,359.167 2370.355,359.167 	"/>
    <path fill="#FFFFFF" d="M2788.277,528.274c0,18.561-2.102,33.944-6.327,46.185c-4.234,12.231-9.771,22.072-16.647,29.514
      c-6.915,7.457-14.913,12.734-24.048,15.815c-9.15,3.105-18.764,4.643-28.895,4.643c-9.841,0-19.18-1.537-28.024-4.643
      c-8.86-3.081-16.686-8.358-23.421-15.815c-6.743-7.441-12.17-17.282-16.231-29.514c-4.085-12.24-6.116-27.624-6.116-46.185V359.167
      h-19.391v171.217c0,21.657,2.588,39.645,7.794,53.979c5.199,14.342,12.162,25.812,20.873,34.375
      c8.704,8.578,18.693,14.624,29.938,18.129c11.236,3.521,22.771,5.277,34.579,5.277c12.075,0,23.758-1.757,35.002-5.277
      c11.252-3.505,21.234-9.551,29.953-18.129c8.704-8.562,15.737-20.033,21.085-34.375c5.34-14.334,8.006-32.321,8.006-53.979V359.167
      h-18.129V528.274z"/>
    <path fill="#FFFFFF" d="M2986.899,508.037c21.916-2.808,39.292-10.554,52.081-23.194c12.797-12.655,19.187-30.078,19.187-52.3
      c0-13.204-2.172-24.464-6.531-33.731c-4.359-9.284-10.476-16.875-18.355-22.779c-7.857-5.904-17.431-10.186-28.667-12.859
      c-11.244-2.666-23.751-4.006-37.52-4.006h-79.705v277.919h19.391V509.292h59.036l46.02,77.924l10.17-20.151L2986.899,508.037z
      M2962.028,493.272h-55.249V375.617h55.249c24.464,0,43.29,4.281,56.511,12.867c13.204,8.57,19.807,23.265,19.807,44.059
      c0,20.521-6.524,35.787-19.604,45.761C3005.664,488.285,2986.751,493.272,2962.028,493.272z"/>
    <path d="M3044.069,478.938"/>
    <g>
      <g>
        <linearGradient id="SVGID_1_" gradientUnits="userSpaceOnUse" x1="3010.4941" y1="500" x2="3165.5352" y2="500">
          <stop  offset="0" style="stop-color:#FA00FD"/>
          <stop  offset="0.1178" style="stop-color:#C232F5"/>
          <stop  offset="0.2365" style="stop-color:#915EEF"/>
          <stop  offset="0.3583" style="stop-color:#6684E9"/>
          <stop  offset="0.4813" style="stop-color:#44A3E4"/>
          <stop  offset="0.6057" style="stop-color:#29BBE1"/>
          <stop  offset="0.7321" style="stop-color:#16CCDE"/>
          <stop  offset="0.8619" style="stop-color:#0BD6DD"/>
          <stop  offset="1" style="stop-color:#07D9DC"/>
        </linearGradient>
        <path fill="url(#SVGID_1_)" d="M3165.535,354.007l-144.754,291.986h-10.287l144.754-291.986H3165.535z"/>
      </g>
    </g>
  </g>
</svg>